<svg width="56" height="56" viewBox="0 0 56 56" fill="none" xmlns="http://www.w3.org/2000/svg">
<path d="M28 15.2727C20.9745 15.2727 15.2727 20.9745 15.2727 28C15.2727 35.0255 20.9745 40.7273 28 40.7273C35.0255 40.7273 40.7273 35.0255 40.7273 28C40.7273 20.9745 35.0255 15.2727 28 15.2727ZM2.54545 30.5455H7.63636C9.03636 30.5455 10.1818 29.4 10.1818 28C10.1818 26.6 9.03636 25.4545 7.63636 25.4545H2.54545C1.14545 25.4545 0 26.6 0 28C0 29.4 1.14545 30.5455 2.54545 30.5455ZM48.3636 30.5455H53.4545C54.8545 30.5455 56 29.4 56 28C56 26.6 54.8545 25.4545 53.4545 25.4545H48.3636C46.9636 25.4545 45.8182 26.6 45.8182 28C45.8182 29.4 46.9636 30.5455 48.3636 30.5455ZM25.4545 2.54545V7.63636C25.4545 9.03636 26.6 10.1818 28 10.1818C29.4 10.1818 30.5455 9.03636 30.5455 7.63636V2.54545C30.5455 1.14545 29.4 0 28 0C26.6 0 25.4545 1.14545 25.4545 2.54545ZM25.4545 48.3636V53.4545C25.4545 54.8545 26.6 56 28 56C29.4 56 30.5455 54.8545 30.5455 53.4545V48.3636C30.5455 46.9636 29.4 45.8182 28 45.8182C26.6 45.8182 25.4545 46.9636 25.4545 48.3636ZM12.7018 9.11273C11.7091 8.12 10.08 8.12 9.11273 9.11273C8.12 10.1055 8.12 11.7345 9.11273 12.7018L11.8109 15.4C12.8036 16.3927 14.4327 16.3927 15.4 15.4C16.3673 14.4073 16.3927 12.7782 15.4 11.8109L12.7018 9.11273ZM44.1891 40.6C43.1964 39.6073 41.5673 39.6073 40.6 40.6C39.6073 41.5927 39.6073 43.2218 40.6 44.1891L43.2982 46.8873C44.2909 47.88 45.92 47.88 46.8873 46.8873C47.88 45.8945 47.88 44.2655 46.8873 43.2982L44.1891 40.6ZM46.8873 12.7018C47.88 11.7091 47.88 10.08 46.8873 9.11273C45.8945 8.12 44.2655 8.12 43.2982 9.11273L40.6 11.8109C39.6073 12.8036 39.6073 14.4327 40.6 15.4C41.5927 16.3673 43.2218 16.3927 44.1891 15.4L46.8873 12.7018ZM15.4 44.1891C16.3927 43.1964 16.3927 41.5673 15.4 40.6C14.4073 39.6073 12.7782 39.6073 11.8109 40.6L9.11273 43.2982C8.12 44.2909 8.12 45.92 9.11273 46.8873C10.1055 47.8545 11.7345 47.88 12.7018 46.8873L15.4 44.1891Z" fill="white"/>
</svg>
